<svg xmlns="http://www.w3.org/2000/svg" width="600" height="500" viewBox="-400 -420 850 950" preserveAspectRatio="xMinYMin meet">
  <path d="M0,442.135C81.489,444.459,140.439,369.269,210.082,326.894C281.801,283.255,392.541,270.433,415.091,189.566C438.45,105.799,330.198,40.286,313.822,-45.121C298.666,-124.164,366.545,-212.625,324.781,-281.424C283.343,-349.686,188.984,-360.612,111.237,-378.84C37.021,-396.24,-39.77,-406.007,-112.754,-384.005C-185.439,-362.093,-258.427,-322.345,-295.648,-256.18C-331.115,-193.133,-302.379,-116.049,-304.171,-43.733C-305.715,18.588,-322.443,79.516,-305.453,139.496C-286.577,206.134,-251.718,266.378,-202.518,315.125C-144.743,372.368,-81.298,439.816,0,442.135"
    fill="#5d7589" />
</svg>

