<svg xmlns="http://www.w3.org/2000/svg" width="600" height="500" viewBox="500 200 1100 1000" preserveAspectRatio="xMinYMin meet">
  <g transform="scale(-1,1) translate(-2200,0)">
    <path d="M1100 1186.431C1172.499 1178.066 1233.576 1139.643 1302.05 1114.396 1392.8690000000001 1080.911 1527.81 1101.784 1568.18 1013.81 1608.524 925.892 1486.276 842.174 1470.786 746.689 1455.74 653.94 1520.617 555.432 1480.069 470.669 1436.9 380.427 1345.109 319.824 1250.727 286.66999999999996 1153.699 252.586 1046.828 253.90599999999995 948.468 283.92999999999995 850.729 313.765 763.429 373.377 701.178 454.419 640.976 532.794 604.89 630.239 606.554 729.053 608.0989999999999 820.793 663.108 899.241 709.996 978.109 752.244 1049.171 792.665 1125.804 865.586 1164.755 936.232 1202.491 1020.435 1195.6109999999999 1100 1186.431"
      fill="#192e40" />
  </g>
</svg>

