<svg xmlns="http://www.w3.org/2000/svg" width="400" height="400" viewBox="-400 -400 800 800" preserveAspectRatio="xMinYMin meet">
  <path d="M0,315.299C65.278,317.786,140.548,338.758,191.177,297.477C242.016,256.025,217.493,171.337,247.868,113.198C280.92,49.936,372.199,17.451,374.745,-53.88C377.248,-124.011,317.574,-185.198,259.947,-225.246C207.769,-261.507,136.61,-240.014,76.649,-261.041C11.732,-283.806,-36.858,-369.523,-103.569,-352.725C-169.587,-336.101,-171.104,-238.34,-216.166,-187.309C-261.872,-135.55,-351.94,-120.04,-368.282,-52.951C-384.502,13.639,-327.768,74.567,-294.557,134.52C-263.81,190.026,-236.119,250.068,-182.039,283.259C-128.442,316.153,-62.84,312.905,0,315.299"
    fill="#723a3a" />
</svg>
