<svg xmlns="http://www.w3.org/2000/svg" width="600" height="500" viewBox="-450 -470 950 950" preserveAspectRatio="xMinYMin meet">
  <path d="M0,420.021C77.35,415.429,130.962,346.18,200.472,311.94C281.585,271.984,390.588,276.126,442.462,202.066C495.176,126.808,475.398,24.405,465.885,-66.984C456.041,-161.555,453.924,-267.854,386.562,-334.958C319.906,-401.359,212.014,-388.428,120.65,-410.896C34.066,-432.189,-49.52,-484.829,-136.093,-463.489C-223.736,-441.886,-288.774,-369.308,-342.459,-296.742C-393.317,-227.997,-434.619,-147.742,-432.934,-62.246C-431.349,18.191,-371.993,81.648,-333.61,152.355C-298.151,217.675,-274.347,290.175,-216.376,336.687C-154.846,386.055,-78.748,424.696,0,420.021"
    fill="#c88c3c" />
</svg>
